{"title":"Melodifestivalen.2016.Deltavling.4.SWEDiSH.720p.WEBRiP.H264","uid":13691312,"size":1857168354,"categoryP":"video","categoryS":"hd___tv_shows","magnet":"?xt=urn:btih:5b97e50617bb5ec1745bdf464d7f689b165558bf&amp;dn=Melodifestivalen.2016.Deltavling.4.SWEDiSH.720p.WEBRiP.H264&amp;tr=udp%3A%2F%2Ftracker.leechers-paradise.org%3A6969&amp;tr=udp%3A%2F%2Fzer0day.ch%3A1337&amp;tr=udp%3A%2F%2Fopen.demonii.com%3A1337&amp;tr=udp%3A%2F%2Ftracker.coppersurfer.tk%3A6969&amp;tr=udp%3A%2F%2Fexodus.desync.com%3A6969","seeders":0,"leechers":1,"uploader":null,"files":1,"time":1456619664,"description":"Källa: SVT play\r\n\r\n\r\nStartfält:\r\n\r\n1. Eclipse - Runaways\r\n2. Dolly Style - Rollercoaster\r\n3. Martin Stenmarck - Du tar mig tillbaks\r\n4. Linda Bengtzing - Killer Girl\r\n5. Frans - If I Were Sorry\r\n6. Panetoz - Håll om mig hårt\r\n7. Molly Sandén - Youniverse\r\n\r\n\r\nMediaInfo:\r\n\r\nGeneral\r\nComplete name             : Melodifestivalen.2016.Deltavling.4.SWEDiSH.720p.WEBRiP.H264.mp4\r\nFormat                    : MPEG-4\r\nFormat profile            : Base Media\r\nCodec ID                  : isom\r\nFile size                 : 1.73 GiB\r\nDuration                  : 1h 28mn\r\nOverall bit rate mode     : Variable\r\nOverall bit rate          : 2 803 Kbps\r\nWriting application       : Lavf57.14.100\r\n\r\nVideo\r\nID                        : 1\r\nFormat                    : AVC\r\nFormat/Info               : Advanced Video Codec\r\nFormat profile            :   \r\nFormat settings, CABAC    : Yes\r\nFormat settings, ReFrames : 1 frame\r\nFormat settings, GOP      : M=1, N=50\r\nCodec ID                  : avc1\r\nCodec ID/Info             : Advanced Video Coding\r\nDuration                  : 1h 28mn\r\nBit rate                  : 2 702 Kbps\r\nWidth                     : 1 280 pixels\r\nHeight                    : 720 pixels\r\nDisplay aspect ratio      : 16:9\r\nFrame rate                : 25.000 fps\r\nStandard                  : PAL\r\nColor space               : YUV\r\nChroma subsampling        : 4:2:0\r\nBit depth                 : 8 bits\r\nScan type                 : Progressive\r\nBits/(Pixel*Frame)        : 0.117\r\nStream size               : 1.67 GiB (96%)\r\nColor range               : Full\r\nColor primaries           : BT.601 PAL\r\nTransfer characteristics  : BT.470 System B, BT.470 System G\r\nMatrix coefficients       : BT.601\r\n\r\nAudio\r\nID                        : 2\r\nFormat                    : AAC\r\nFormat/Info               : Advanced Audio Codec\r\nFormat profile            : LC\r\nCodec ID                  : 40\r\nDuration                  : 1h 28mn\r\nBit rate mode             : Variable\r\nBit rate                  : 96.0 Kbps\r\nMaximum bit rate          : 98.3 Kbps\r\nChannel(s)                : 2 channels\r\nChannel positions         : Front: L R\r\nSampling rate             : 48.0 KHz\r\nCompression mode          : Lossy\r\nStream size               : 60.7 MiB (3%)","torrent":{"xt":"urn:btih:5b97e50617bb5ec1745bdf464d7f689b165558bf","amp;dn":"Melodifestivalen.2016.Deltavling.4.SWEDiSH.720p.WEBRiP.H264","amp;tr":["udp%3A%2F%2Ftracker.leechers-paradise.org%3A6969","udp%3A%2F%2Fzer0day.ch%3A1337","udp%3A%2F%2Fopen.demonii.com%3A1337","udp%3A%2F%2Ftracker.coppersurfer.tk%3A6969","udp%3A%2F%2Fexodus.desync.com%3A6969"],"infoHash":"5b97e50617bb5ec1745bdf464d7f689b165558bf","infoHashBuffer":{"type":"Buffer","data":[91,151,229,6,23,187,94,193,116,91,223,70,77,127,104,155,22,85,88,191]},"announce":[],"urlList":[]}}